<?xml version="1.0" encoding="utf-8"?>
<!-- Generator: Adobe Illustrator 21.0.0, SVG Export Plug-In . SVG Version: 6.00 Build 0)  -->
<svg version="1.1" id="图层_1" xmlns="http://www.w3.org/2000/svg" xmlns:xlink="http://www.w3.org/1999/xlink" x="0px" y="0px"
	 viewBox="0 0 400 400" style="enable-background:new 0 0 400 400;" xml:space="preserve">
<style type="text/css">
	.st0{fill:url(#SVGID_1_);}
</style>
<linearGradient id="SVGID_1_" gradientUnits="userSpaceOnUse" x1="28" y1="200" x2="372" y2="200">
	<stop  offset="0" style="stop-color:#00C9FF"/>
	<stop  offset="0.5378" style="stop-color:#4BB2FD"/>
</linearGradient>
<path class="st0" d="M200.3,31.4c49,1.1,89.4,17.9,121.7,50.4c32.3,32.5,49,73.7,50.1,122.4c-0.5,39-11.8,72.6-33.4,102.4
	c-21.5,29.8-49.5,49.8-84.5,62.3c-4.3,0.5-7.6,0-9.2-1.6c-1.6-2.2-2.7-4.3-2.7-6.5l0.5-47.7c0-8.1-1.1-14.6-3.8-20
	c-2.1-5.4-4.8-9.2-8.1-11.9c19.9-1.1,37.7-7.6,53.8-19.5c15.6-11.4,24.2-33.6,25.3-66.1c0-9.2-1.6-17.9-4.9-25.5
	c-3.2-7.6-7.5-14.6-12.9-20.6c1.1-2.2,2.7-7.6,3.2-15.7c1.1-8.1-0.5-18.4-4.9-30.3c0-0.5-3.8-0.5-11.3,0.5
	c-7.5,1.1-19.4,7.1-36.1,17.3c-14-3.8-28-6-43.1-6c-15.1,0-29.1,2.2-43.1,6c-16.2-10.8-28.5-16.2-36.1-17.3
	c-7.6-1.1-11.3-1.1-11.3-0.5c-4.3,11.9-5.9,22.2-4.8,30.3c1.1,8.1,2.1,13.6,3.2,15.7c-5.4,6-10.2,12.5-12.9,20.6
	c-3.2,7.6-4.8,16.2-4.8,26c1.1,32.5,9.2,54.2,24.8,66.1c15.6,11.9,33.4,18.4,53.3,19.5c-2.7,2.2-4.8,4.9-6.5,8.7
	c-2.1,3.8-3.2,8.7-4.3,14.1c-5.9,3.3-13.5,4.3-23.7,3.8c-10.2-0.5-18.9-6.5-26.4-18.4c-3.8-6-7.5-10.3-12.4-13
	c-4.8-2.7-9.1-4.3-14.5-4.9c-4.3-0.5-7,0-8.1,2.2c-1.1,1.6,1.1,4.3,6.5,8.1s9.7,7.6,12.4,11.9c2.7,4.3,4.9,9.2,7,13.6
	c2.7,7,8.6,13,18.3,17.9c9.2,4.9,22.6,5.4,39.8,2.2l0.5,32c0,2.7-1.1,4.9-2.7,6.5c-1.6,2.2-4.8,2.7-9.2,1.6
	c-35-11.9-63-33-84.5-62.3C39.3,276.3,28.5,242.1,28,203.7c1.1-49.3,17.8-89.9,50.1-122.4c32.3-32.5,73.2-49.3,121.7-50.4
	L200.3,31.4z"/>
</svg>
