<?xml version="1.0" encoding="utf-8"?>
<!-- Generator: Adobe Illustrator 21.0.0, SVG Export Plug-In . SVG Version: 6.00 Build 0)  -->
<svg version="1.1" id="图层_1" xmlns="http://www.w3.org/2000/svg" xmlns:xlink="http://www.w3.org/1999/xlink" x="0px" y="0px"
	 viewBox="0 0 400 400" style="enable-background:new 0 0 400 400;" xml:space="preserve">
<style type="text/css">
	.st0{fill:url(#SVGID_1_);}
</style>
<linearGradient id="SVGID_1_" gradientUnits="userSpaceOnUse" x1="17" y1="200" x2="383" y2="200">
	<stop  offset="0" style="stop-color:#00C9FF"/>
	<stop  offset="0.5378" style="stop-color:#4BB2FD"/>
</linearGradient>
<path class="st0" d="M240.7,255.3c2.2,2.2,2.2,4.3,0,6.3c-8.4,8.4-22,12.7-40.7,12.7s-32.2-4.2-40.7-12.7c-2.2-2-2.2-4.1,0-6.3
	c0.8-0.8,1.8-1.2,3.1-1.2s2.2,0.4,3.1,1.2c6.5,6.7,18,10,34.5,10c16.3,0,27.8-3.3,34.5-10c0.8-0.8,1.8-1.2,3.1-1.2
	S239.8,254.5,240.7,255.3L240.7,255.3z M177.9,218.4c0,5-1.8,9.3-5.3,12.9c-3.5,3.5-7.8,5.3-12.9,5.3c-5,0-9.4-1.8-13-5.3
	c-3.6-3.5-5.4-7.8-5.4-12.9c0-5.2,1.8-9.5,5.4-13.1s7.9-5.3,13-5.3s9.3,1.8,12.9,5.4C176.2,209,177.9,213.3,177.9,218.4z
	 M258.6,218.4c0,5-1.8,9.3-5.4,12.9c-3.6,3.5-7.9,5.3-13,5.3c-5,0-9.3-1.8-12.9-5.3c-3.5-3.5-5.3-7.8-5.3-12.9c0-5,1.8-9.4,5.3-13
	c3.5-3.6,7.8-5.4,12.9-5.4c5,0,9.4,1.8,13,5.3S258.6,213.2,258.6,218.4z M309.9,193.9c0-6.7-2.4-12.4-7.1-17.1
	c-4.8-4.8-10.5-7.1-17.4-7.1c-6.8,0-12.7,2.4-17.6,7.3c-17.7-12.3-38.9-18.8-63.5-19.6l12.9-57.8l40.9,9.2c0,5,1.8,9.3,5.3,12.9
	c3.5,3.5,7.8,5.3,12.9,5.3c5,0,9.4-1.8,13-5.4s5.4-7.9,5.4-13c0-5-1.8-9.4-5.4-13c-3.6-3.6-7.9-5.4-13-5.4
	c-7.4,0-12.8,3.4-16.3,10.2l-45.1-10c-2.6-0.7-4.3,0.4-5.1,3.3l-14.1,63.7c-24.5,1-45.5,7.6-63.1,19.8c-4.8-5-10.7-7.6-17.8-7.6
	c-6.8,0-12.6,2.4-17.4,7.1c-4.8,4.8-7.1,10.5-7.1,17.1c0,4.8,1.3,9.1,3.8,13.1c2.5,4,5.9,7,10.1,9c-0.8,3.7-1.2,7.5-1.2,11.5
	c0,19.3,9.5,35.9,28.6,49.6c19.1,13.8,42,20.6,68.8,20.6c27,0,50-6.9,69-20.6c19.1-13.8,28.6-30.3,28.6-49.6c0-4.4-0.5-8.2-1.4-11.6
	c4.1-2,7.3-5,9.8-8.9S309.9,198.7,309.9,193.9L309.9,193.9z M383,200c0,24.8-4.8,48.5-14.5,71.1c-9.7,22.6-22.7,42.1-39,58.4
	c-16.3,16.3-35.8,29.3-58.4,39c-22.6,9.7-46.3,14.5-71.1,14.5s-48.5-4.8-71.1-14.5c-22.6-9.7-42.1-22.7-58.4-39
	c-16.3-16.3-29.3-35.8-39-58.4S17,224.8,17,200s4.8-48.5,14.5-71.1s22.7-42.1,39-58.4s35.8-29.3,58.4-39S175.2,17,200,17
	s48.5,4.8,71.1,14.5s42.1,22.7,58.4,39c16.3,16.3,29.3,35.8,39,58.4C378.2,151.5,383,175.2,383,200z"/>
</svg>
