<?xml version="1.0" encoding="utf-8"?>
<!-- Generator: Adobe Illustrator 21.0.0, SVG Export Plug-In . SVG Version: 6.00 Build 0)  -->
<svg version="1.1" id="图层_1" xmlns="http://www.w3.org/2000/svg" xmlns:xlink="http://www.w3.org/1999/xlink" x="0px" y="0px"
	 viewBox="0 0 400 400" style="enable-background:new 0 0 400 400;" xml:space="preserve">
<style type="text/css">
	.st0{fill:url(#SVGID_1_);}
</style>
<linearGradient id="SVGID_1_" gradientUnits="userSpaceOnUse" x1="30" y1="200" x2="370" y2="200">
	<stop  offset="0" style="stop-color:#00C9FF"/>
	<stop  offset="0.5378" style="stop-color:#4BB2FD"/>
</linearGradient>
<path class="st0" d="M255.6,278l27.9-131.5c1.1-5.6,0.5-9.5-2-12s-5.7-2.8-9.8-1.3l-163.9,63.2c-3.7,1.4-6.2,3-7.5,4.7
	c-1.3,1.8-1.5,3.4-0.5,5c1,1.6,3,2.8,6.1,3.7l41.9,13.1l97.3-61.3c2.7-1.8,4.7-2.2,6.1-1.1c0.9,0.6,0.6,1.6-0.8,2.8l-78.7,71.1
	l-3,43.3c2.9,0,5.8-1.4,8.5-4.2l20.5-19.7l42.5,31.3C248.3,289.7,253.4,287.3,255.6,278L255.6,278z M370,200c0,23-4.5,45-13.5,66
	c-9,21-21.1,39.1-36.2,54.3c-15.2,15.2-33.3,27.3-54.3,36.2c-21,9-43,13.5-66,13.5s-45-4.5-66-13.5c-21-9-39.1-21.1-54.3-36.2
	C64.5,305.1,52.5,287,43.5,266c-9-21-13.5-43-13.5-66s4.5-45,13.5-66s21.1-39.1,36.2-54.3S113,52.5,134,43.5S177,30,200,30
	c23,0,45,4.5,66,13.5s39.1,21.1,54.3,36.2s27.3,33.3,36.2,54.3C365.5,155,370,177,370,200L370,200z"/>
</svg>
