<?xml version="1.0" encoding="utf-8"?>
<!-- Generator: Adobe Illustrator 21.0.0, SVG Export Plug-In . SVG Version: 6.00 Build 0)  -->
<svg version="1.1" id="图层_1" xmlns="http://www.w3.org/2000/svg" xmlns:xlink="http://www.w3.org/1999/xlink" x="0px" y="0px"
	 viewBox="0 0 400 400" style="enable-background:new 0 0 400 400;" xml:space="preserve">
<style type="text/css">
	.st0{fill:url(#SVGID_1_);}
</style>
<linearGradient id="SVGID_1_" gradientUnits="userSpaceOnUse" x1="18" y1="200" x2="382" y2="200">
	<stop  offset="0" style="stop-color:#00C9FF"/>
	<stop  offset="0.5378" style="stop-color:#4BB2FD"/>
</linearGradient>
<path class="st0" d="M382,200c0-100.5-81.5-182-182-182S18,99.5,18,200s81.5,182,182,182S382,300.5,382,200z M102,264.7
	c3.1,0.4,6.4,0.6,9.6,0.6c18.8,0,36.2-6.8,49.9-18.2c-17.6-0.4-32.4-12.9-37.6-29.9c2.4,0.5,5,0.8,7.6,0.8c3.7,0,7.2-0.5,10.6-1.4
	c-18.4-4.1-32.3-21.5-32.3-42.3c0-0.2,0-0.4,0-0.5c5.4,3.3,11.6,5.3,18.2,5.6c-10.8-7.8-17.9-21-17.9-35.9c0-7.9,2-15.2,5.4-21.5
	c19.8,26.2,49.5,43.6,82.9,45.8c-0.7-3.1-1-6.4-1-9.7c0-23.5,18-42.3,40.2-41.9c11.6,0.2,22,5.5,29.4,13.8
	c9.2-1.8,17.8-5.1,25.5-9.8c-3,9.8-9.4,18-17.7,23.1c8.1-0.9,15.9-3.1,23.1-6.3c-5.4,8.4-12.2,15.7-20.1,21.6
	c0.1,1.8,0.1,3.6,0.1,5.5c0,55.8-40.5,120.2-114.4,120.2C140.9,284,119.8,276.9,102,264.7z"/>
</svg>
